<svg width="107" height="55" viewBox="0 0 107 55" fill="none" xmlns="http://www.w3.org/2000/svg">
<path id="PQ logo" fill-rule="evenodd" clip-rule="evenodd" d="M31.4412 4.48455L35.8845 0.041305L35.9258 0H36.15L47.2729 0.0118014C50.3973 0.0118014 53.3211 1.24505 55.5014 3.48733C57.6817 5.72665 58.8353 8.68291 58.7498 11.8132C58.5816 17.9677 53.3595 22.9745 47.1077 22.9745H26.8918C25.4343 22.9745 24.2542 24.1546 24.2542 25.6121V45.3795L24.2512 45.3824L19.7844 49.8434C18.9052 50.7196 17.7014 50.5426 17.2264 49.3949C17.1497 49.2032 17.1054 48.9937 17.1054 48.7754V17.3688C17.1054 16.5132 17.7988 15.8228 18.6514 15.8228H47.1106C49.527 15.8228 51.542 13.9346 51.607 11.6126C51.6394 10.4295 51.2057 9.31429 50.3826 8.46753C49.5594 7.62078 48.456 7.15462 47.2758 7.15462L36.867 7.15167L31.8868 12.1319C30.7686 13.2471 28.957 13.2471 27.8418 12.1319L24.9121 9.20217C24.0388 8.33182 22.6256 8.33182 21.7552 9.20217L18.7724 12.185C17.6542 13.3002 15.8427 13.3002 14.7275 12.185L11.5293 8.9868C10.656 8.11644 9.24274 8.11644 8.37238 8.9868L4.52511 12.8341C3.88489 13.4743 2.84931 13.4743 2.20908 12.8341L0.480171 11.1052C-0.160057 10.4649 -0.160057 9.42935 0.480171 8.78912L7.92688 1.33946C9.04507 0.224227 10.8536 0.224227 11.9718 1.33946L15.17 4.5406C16.0433 5.41096 17.4565 5.41096 18.3269 4.5406L21.3097 1.55484C22.4279 0.439604 24.2394 0.439604 25.3547 1.55484L28.2844 4.48455C29.1577 5.3549 30.5709 5.3549 31.4412 4.48455ZM78.0865 54.3102H105.51C106.333 54.3102 107 53.6464 107 52.8203V48.4213C107 47.5982 106.333 46.9314 105.51 46.9314H78.0865C72.1562 46.9314 67.3501 42.1252 67.3501 36.195V18.0946C67.3501 14.1706 69.5835 10.5387 73.0384 8.84518C77.1895 6.81239 81.6121 6.9186 85.1791 9.14317C88.6281 11.291 90.6874 14.9967 90.6874 19.0534V40.119C90.6874 41.5706 92.3751 42.3701 93.4991 41.4526L97.7506 36.6022C97.9512 36.372 98.0633 36.077 98.0633 35.7731V19.0564C98.0633 12.4358 94.7058 6.39048 89.0825 2.88546C83.3086 -0.713983 76.2779 -0.955913 69.793 2.22458C63.8274 5.14838 59.9742 11.3795 59.9742 18.0975V36.198C59.9742 46.1997 68.0818 54.3102 78.0865 54.3102Z" fill="#DFB525"/>
</svg>
