<svg width="50" height="50" viewBox="0 0 50 50" fill="none" xmlns="http://www.w3.org/2000/svg">
<path d="M24.9557 23.356V26.807H29.7477C29.3017 29 27.4347 30.26 24.9557 30.26C22.0683 30.2202 19.7484 27.8682 19.7484 24.9805C19.7484 22.0928 22.0683 19.7407 24.9557 19.701C26.1559 19.6995 27.3192 20.1161 28.2457 20.879L30.8457 18.279C27.8633 15.657 23.5077 15.3198 20.1573 17.4514C16.8068 19.583 15.2667 23.6712 16.378 27.4836C17.4892 31.296 20.9847 33.9164 24.9557 33.914C29.4227 33.914 33.4847 30.665 33.4847 24.98C33.4778 24.4326 33.4108 23.8877 33.2847 23.355L24.9557 23.356Z" fill="#121212"/>
<rect x="0.5" y="0.5" width="49" height="49" rx="24.5" stroke="#121212"/>
</svg>
