<svg width="121" height="120" viewBox="0 0 121 120" fill="none" xmlns="http://www.w3.org/2000/svg">
<g clip-path="url(#clip0_6792_4993)">
<circle cx="60.5" cy="60" r="60" fill="#FFFDE6"/>
<path d="M35.9514 99.3398C43.2645 92.3924 58.0004 77.949 58.4392 75.755C58.878 73.5611 58.6221 62.0429 58.4392 56.5581C56.4281 54.547 52.4059 51.9508 52.4059 57.655M52.4059 57.655C52.4059 57.8386 52.4059 58.0214 52.4059 58.2036M52.4059 57.655C52.4059 53.0844 52.4059 43.3945 52.4059 41.2005C52.4059 38.4581 46.9211 37.3612 46.9211 44.4914M52.4059 58.2036C52.4059 63.6829 52.4059 68.5007 52.4059 70.2702V58.2036ZM46.9211 44.4914C46.9211 50.1957 46.9211 58.9349 46.9211 62.5915V44.4914ZM46.9211 44.4914C47.1039 42.2975 47.0308 37.9097 45.2756 37.9097C43.4425 37.9097 41.9922 37.9096 41.5648 41.7491M41.4362 44.4914C41.4362 49.7569 41.4362 57.6551 41.4362 60.946V44.4914ZM41.4362 44.4914C41.4362 43.4091 41.4807 42.5047 41.5648 41.7491M41.5648 41.7491C39.8765 40.6521 36.4999 39.4454 36.4999 43.3945M36.4999 43.3945C36.4999 47.3436 36.4999 56.741 36.4999 60.946V43.3945ZM36.4999 43.3945C34.8544 42.6632 31.5635 42.6266 31.5635 48.3309C31.5635 52.8528 31.5635 64.7967 31.5635 73.5611M31.5635 73.5611C31.5635 75.8528 31.5635 77.9271 31.5635 79.5945V73.5611ZM31.5635 73.5611L21.6908 83.4339" stroke="black" stroke-width="1.2"/>
<path d="M88.8257 62.8942C89.2221 60.1192 90.0484 57.9173 91.0197 56.2884M91.0197 56.2884C92.736 53.4099 94.9053 52.321 95.9561 53.0215C97.6016 54.1185 92.6652 72.7669 94.3107 74.4124C95.627 75.7288 101.807 83.0053 104.732 86.479L88.8257 100.191C82.9752 94.7063 71.0548 83.0784 70.1773 80.4457C69.0803 77.1548 68.5318 53.57 69.0803 48.0852C69.5191 43.6973 72.6389 44.4286 74.1439 45.3427M91.0197 56.2884C91.0197 52.0914 91.0197 43.5876 91.0197 43.1488C91.0197 42.6003 91.5681 39.8579 88.8257 39.8579C87.3061 39.8579 86.7969 41.0367 86.4584 44.7942M85.5348 59.6033C86.0239 52.5111 86.1859 47.8178 86.4584 44.7942M86.4584 44.7942C86.699 42.2346 86.4124 37.2252 83.3409 37.6639C81.4799 37.9298 80.4646 39.4171 79.9533 40.9549M78.953 60.1518L79.5015 43.6973C79.5015 42.9767 79.6208 41.9551 79.9533 40.9549M79.9533 40.9549C78.5229 39.8579 75.4427 38.6512 74.5651 42.6003C74.4033 43.3287 74.2638 44.2674 74.1439 45.3427M73.4682 61.2488C73.4682 57.5212 73.6141 50.0969 74.1439 45.3427M84.4369 65.6366C82.9746 67.8306 81.1469 73.096 85.5348 76.6063" stroke="black" stroke-width="1.2"/>
<path d="M9.5589 88.9222C11.5597 86.4093 21.0965 79.401 21.0965 79.401C21.0965 79.401 40.6092 101.791 38.8885 103.904C37.1678 106.017 29.7274 109.408 29.7274 109.408L9.55907 88.9203L9.5589 88.9222Z" fill="#FFD100"/>
<path d="M113.232 86.2863L107.524 80.9942L81.1452 101.903L90.8626 109.521L113.232 86.2863Z" fill="#FFD100"/>
<path d="M90.1367 83.8271L94.3358 88.0263" stroke="black" stroke-width="0.809962"/>
<path d="M84.6438 25.8952C83.0358 22.5098 82.7303 17.4357 87.2059 16.1622C88.5374 15.7833 90.3101 16.1046 90.9273 17.4933C91.2798 18.2865 91.3924 19.5473 90.362 19.8908C88.4674 20.5223 88.1221 17.9539 88.4511 16.6846C89.2115 13.7518 92.8096 13.1421 95.3358 13.1421" stroke="#2A7050" stroke-width="0.783834" stroke-linecap="round"/>
<path d="M40.5462 21.4962C39.3994 18.8316 38.771 16.2191 38.2274 13.3806" stroke="#B6C1B6" stroke-width="0.783834" stroke-linecap="round"/>
<path d="M35.2473 31.9948C33.7955 31.3726 32.4694 30.9972 30.9819 31.7801C28.9354 32.8572 27.9223 34.6668 26.874 36.6323" stroke="#B6C1B6" stroke-width="0.783834" stroke-linecap="round"/>
<path d="M34.1398 25.4741C32.9307 24.044 31.8366 22.3433 30.1464 21.4306C29.0579 20.8428 27.3994 20.1943 26.1817 20.7078C24.3039 21.4997 23.1996 25.3139 25.924 25.7031C28.4635 26.0659 28.8765 23.4651 28.8582 21.5523C28.8444 20.0986 28.4626 18.9113 27.6345 17.7092C26.5521 16.138 24.3961 16.0104 22.6749 15.9415" stroke="#FFD100" stroke-width="0.783834" stroke-linecap="round"/>
<path d="M86.2766 30.1271C88.9605 29.9407 91.0034 32.2191 92.8464 33.8628" stroke="#F5DF7A" stroke-width="0.783834" stroke-linecap="round"/>
<ellipse cx="57.3176" cy="31.6882" rx="1.04978" ry="1.04978" fill="#FFD100"/>
<ellipse cx="96.5092" cy="24.6897" rx="1.04977" ry="1.04978" fill="#B6C1B6"/>
<ellipse cx="77.9632" cy="13.1421" rx="1.3997" ry="1.3997" fill="#FFD100"/>
<path d="M51.019 9.64285L51.8696 11.9416L54.1683 12.7922L51.8696 13.6428L51.019 15.9415L50.1684 13.6428L47.8696 12.7922L50.1684 11.9416L51.019 9.64285Z" fill="#FFD100"/>
<path d="M64.3161 18.7409L64.9776 20.5288L66.7655 21.1904L64.9776 21.852L64.3161 23.6399L63.6545 21.852L61.8666 21.1904L63.6545 20.5288L64.3161 18.7409Z" fill="#6FA088"/>
<path d="M109.107 36.2372C110.226 36.937 110.506 38.3368 109.876 39.4565C109.177 40.5763 107.777 40.8562 106.657 40.2263" stroke="#6FA088" stroke-width="0.783834" stroke-miterlimit="10" stroke-linecap="round" stroke-linejoin="round"/>
<path d="M19.3856 46.4551C20.6611 46.4551 21.6951 45.4211 21.6951 44.1456C21.6951 42.8701 20.6611 41.8361 19.3856 41.8361C18.1101 41.8361 17.076 42.8701 17.076 44.1456C17.076 45.4211 18.1101 46.4551 19.3856 46.4551Z" stroke="#6FA088" stroke-width="0.783834" stroke-miterlimit="10" stroke-linecap="round" stroke-linejoin="round"/>
</g>
<defs>
<clipPath id="clip0_6792_4993">
<rect width="120" height="120" fill="white" transform="translate(0.5)"/>
</clipPath>
</defs>
</svg>
