<svg width="74" height="48" viewBox="0 0 74 48" fill="none" xmlns="http://www.w3.org/2000/svg">
<path fill-rule="evenodd" clip-rule="evenodd" d="M21.7444 3.12887L24.8173 0.0288185L24.8459 0H25.0009L32.6934 0.00823386C34.8542 0.00823386 36.8763 0.868672 38.3842 2.43311C39.892 3.99548 40.6899 6.05806 40.6307 8.24209C40.5144 12.5361 36.9028 16.0293 32.5791 16.0293H18.5981C17.5901 16.0293 16.7739 16.8527 16.7739 17.8695V31.6613L16.7719 31.6633L13.6827 34.7757C13.0746 35.3871 12.2421 35.2636 11.9136 34.4628C11.8605 34.329 11.8299 34.1829 11.8299 34.0305V12.1182C11.8299 11.5212 12.3094 11.0395 12.8991 11.0395H32.5812C34.2523 11.0395 35.6459 9.72213 35.6908 8.10212C35.7132 7.27667 35.4133 6.49857 34.844 5.90779C34.2747 5.31702 33.5116 4.99178 32.6954 4.99178L25.4968 4.98972L22.0525 8.46441C21.2792 9.24251 20.0264 9.24251 19.2551 8.46441L17.2289 6.42035C16.625 5.81311 15.6476 5.81311 15.0457 6.42035L12.9828 8.50146C12.2095 9.27956 10.9566 9.27956 10.1853 8.50146L7.97351 6.27008C7.36954 5.66284 6.39217 5.66284 5.79025 6.27008L3.12952 8.95432C2.68674 9.40101 1.97055 9.40101 1.52778 8.95432L0.332081 7.74806C-0.110694 7.30138 -0.110694 6.57885 0.332081 6.13217L5.48214 0.934543C6.25547 0.156443 7.50625 0.156443 8.27958 0.934543L10.4914 3.16798C11.0954 3.77522 12.0727 3.77522 12.6747 3.16798L14.7376 1.08481C15.5109 0.306711 16.7637 0.306711 17.535 1.08481L19.5611 3.12887C20.1651 3.73611 21.1425 3.73611 21.7444 3.12887ZM54.0037 37.8922H72.9696C73.5389 37.8922 74 37.4291 74 36.8527V33.7835C74 33.2092 73.5389 32.744 72.9696 32.744H54.0037C49.9025 32.744 46.5786 29.3908 46.5786 25.2533V12.6246C46.5786 9.88681 48.1232 7.35284 50.5125 6.17128C53.3834 4.753 56.442 4.8271 58.9089 6.37918C61.2942 7.87775 62.7184 10.4632 62.7184 13.2936V27.991C62.7184 29.0038 63.8856 29.5616 64.663 28.9214L67.6032 25.5373C67.742 25.3768 67.8195 25.1709 67.8195 24.9589V13.2956C67.8195 8.67643 65.4975 4.45864 61.6084 2.01318C57.6153 -0.498149 52.7529 -0.666943 48.2681 1.55208C44.1423 3.59202 41.4775 7.9395 41.4775 12.6266V25.2553C41.4775 32.2335 47.0846 37.8922 54.0037 37.8922Z" fill="#121212"/>
<path d="M5.26292 47.9518V45.0803H6.46815C6.59757 45.0803 6.71621 45.1072 6.82406 45.1612C6.93191 45.2151 7.02628 45.2865 7.10717 45.3755C7.18805 45.4645 7.25007 45.5643 7.29321 45.6748C7.33635 45.7854 7.35792 45.8986 7.35792 46.0145C7.35792 46.1736 7.32152 46.326 7.24872 46.4716C7.17862 46.6145 7.07751 46.7304 6.94539 46.8194C6.81597 46.9084 6.66498 46.9528 6.49242 46.9528H5.71589V47.9518H5.26292ZM5.71589 46.5524H6.46411C6.55039 46.5524 6.62588 46.5295 6.69059 46.4837C6.7553 46.4352 6.80518 46.3704 6.84024 46.2896C6.87798 46.2087 6.89686 46.117 6.89686 46.0145C6.89686 45.9094 6.87529 45.8164 6.83215 45.7355C6.78901 45.6546 6.73238 45.5926 6.66228 45.5494C6.59487 45.5036 6.52073 45.4807 6.43984 45.4807H5.71589V46.5524ZM8.38943 47.9518V45.0803H9.63916C9.76858 45.0803 9.88721 45.1072 9.99506 45.1612C10.1029 45.2151 10.1959 45.2865 10.2741 45.3755C10.355 45.4645 10.417 45.5643 10.4602 45.6748C10.506 45.7854 10.5289 45.8986 10.5289 46.0145C10.5289 46.1413 10.506 46.2626 10.4602 46.3785C10.4143 46.4945 10.3483 46.5942 10.262 46.6778C10.1784 46.7614 10.08 46.8221 9.96675 46.8598L10.6422 47.9518H10.1326L9.50973 46.9528H8.84241V47.9518H8.38943ZM8.84241 46.5524H9.63511C9.7187 46.5524 9.79284 46.5282 9.85755 46.4796C9.92226 46.4311 9.97349 46.3664 10.0112 46.2855C10.049 46.2019 10.0679 46.1116 10.0679 46.0145C10.0679 45.9148 10.0463 45.8258 10.0032 45.7476C9.96001 45.6667 9.90339 45.602 9.83329 45.5535C9.76588 45.5049 9.69173 45.4807 9.61084 45.4807H8.84241V46.5524ZM11.67 47.9518V45.0803H12.123V47.9518H11.67ZM14.5717 47.972C14.3641 47.972 14.1767 47.9316 14.0095 47.8507C13.8423 47.7698 13.6981 47.6606 13.5768 47.5231C13.4554 47.3829 13.3611 47.2265 13.2937 47.054C13.2289 46.8787 13.1966 46.6994 13.1966 46.516C13.1966 46.3246 13.2316 46.1426 13.3017 45.9701C13.3718 45.7948 13.4689 45.6398 13.5929 45.5049C13.717 45.3674 13.8626 45.2596 14.0297 45.1814C14.1996 45.1005 14.383 45.0601 14.5798 45.0601C14.7847 45.0601 14.9707 45.1019 15.1379 45.1854C15.3078 45.269 15.452 45.3809 15.5707 45.5211C15.692 45.6613 15.785 45.8177 15.8497 45.9903C15.9171 46.1628 15.9508 46.3394 15.9508 46.5201C15.9508 46.7115 15.9158 46.8949 15.8457 47.0701C15.7783 47.2427 15.6826 47.3977 15.5585 47.5352C15.4345 47.6701 15.2876 47.7766 15.1177 47.8547C14.9505 47.9329 14.7685 47.972 14.5717 47.972ZM13.6577 46.516C13.6577 46.6509 13.6792 46.7816 13.7224 46.9084C13.7655 47.0351 13.8262 47.1483 13.9044 47.2481C13.9853 47.3452 14.0823 47.422 14.1956 47.4786C14.3088 47.5352 14.4355 47.5635 14.5757 47.5635C14.7213 47.5635 14.8508 47.5339 14.964 47.4746C15.0772 47.4153 15.1716 47.3357 15.2471 47.236C15.3253 47.1335 15.3846 47.0203 15.4251 46.8962C15.4655 46.7695 15.4857 46.6428 15.4857 46.516C15.4857 46.3812 15.4642 46.2518 15.421 46.1278C15.3806 46.0011 15.3199 45.8892 15.239 45.7921C15.1581 45.6923 15.0611 45.6141 14.9478 45.5575C14.8373 45.5009 14.7132 45.4726 14.5757 45.4726C14.4301 45.4726 14.3007 45.5022 14.1875 45.5616C14.0742 45.6209 13.9785 45.7004 13.9003 45.8002C13.8221 45.8999 13.7615 46.0118 13.7183 46.1359C13.6779 46.2599 13.6577 46.3866 13.6577 46.516ZM17.0265 47.9518V45.0803H18.2762C18.4056 45.0803 18.5242 45.1072 18.6321 45.1612C18.7399 45.2151 18.833 45.2865 18.9112 45.3755C18.992 45.4645 19.0541 45.5643 19.0972 45.6748C19.143 45.7854 19.1659 45.8986 19.1659 46.0145C19.1659 46.1413 19.143 46.2626 19.0972 46.3785C19.0514 46.4945 18.9853 46.5942 18.899 46.6778C18.8154 46.7614 18.717 46.8221 18.6038 46.8598L19.2792 47.9518H18.7696L18.1468 46.9528H17.4794V47.9518H17.0265ZM17.4794 46.5524H18.2721C18.3557 46.5524 18.4299 46.5282 18.4946 46.4796C18.5593 46.4311 18.6105 46.3664 18.6483 46.2855C18.686 46.2019 18.7049 46.1116 18.7049 46.0145C18.7049 45.9148 18.6833 45.8258 18.6402 45.7476C18.597 45.6667 18.5404 45.602 18.4703 45.5535C18.4029 45.5049 18.3288 45.4807 18.2479 45.4807H17.4794V46.5524ZM20.307 47.9518V45.0803H20.76V47.9518H20.307ZM24.1227 45.4807H23.1683V47.9518H22.7113V45.4807H21.7527V45.0803H24.1227V45.4807ZM25.1145 47.9518V45.0803H25.5675V47.9518H25.1145ZM28.5217 45.7557C28.4948 45.726 28.4557 45.695 28.4045 45.6627C28.3532 45.6276 28.2926 45.5953 28.2225 45.5656C28.1524 45.536 28.0769 45.5117 27.996 45.4928C27.9151 45.4739 27.8315 45.4645 27.7452 45.4645C27.5565 45.4645 27.4163 45.4996 27.3246 45.5697C27.2329 45.6398 27.1871 45.7368 27.1871 45.8609C27.1871 45.9525 27.2127 46.0253 27.2639 46.0793C27.3152 46.1305 27.3934 46.1736 27.4985 46.2087C27.6037 46.2437 27.7358 46.2815 27.8949 46.3219C28.089 46.3678 28.2575 46.423 28.4004 46.4877C28.5433 46.5498 28.6525 46.6333 28.728 46.7385C28.8035 46.8436 28.8412 46.9825 28.8412 47.1551C28.8412 47.3007 28.8143 47.426 28.7604 47.5312C28.7064 47.6363 28.6309 47.7226 28.5339 47.79C28.4368 47.8547 28.3249 47.9033 28.1982 47.9356C28.0715 47.9653 27.9353 47.9801 27.7897 47.9801C27.6468 47.9801 27.5039 47.9653 27.361 47.9356C27.2208 47.906 27.086 47.8628 26.9566 47.8062C26.8298 47.7469 26.7125 47.6754 26.6047 47.5919L26.811 47.2036C26.846 47.2386 26.8959 47.2777 26.9606 47.3209C27.028 47.3613 27.1048 47.4004 27.1911 47.4382C27.2801 47.4759 27.3758 47.5083 27.4783 47.5352C27.5834 47.5595 27.6899 47.5716 27.7978 47.5716C27.9784 47.5716 28.116 47.5406 28.2103 47.4786C28.3074 47.4139 28.3559 47.3222 28.3559 47.2036C28.3559 47.1065 28.3249 47.0297 28.2629 46.9731C28.2009 46.9137 28.1106 46.8639 27.9919 46.8234C27.8733 46.783 27.7317 46.7425 27.5673 46.7021C27.3785 46.6509 27.2208 46.5956 27.0941 46.5363C26.9673 46.4743 26.8716 46.3961 26.8069 46.3017C26.7449 46.2046 26.7139 46.0819 26.7139 45.9337C26.7139 45.7449 26.7597 45.5858 26.8514 45.4564C26.9431 45.3243 27.0671 45.2259 27.2235 45.1612C27.3826 45.0938 27.5605 45.0601 27.7573 45.0601C27.8868 45.0601 28.0094 45.0749 28.1254 45.1045C28.2413 45.1315 28.3492 45.1693 28.4489 45.2178C28.5514 45.2663 28.6444 45.3216 28.728 45.3836L28.5217 45.7557ZM31.8718 47.5514V47.9518H29.9022V45.0803H31.8354V45.4807H30.3552V46.2976H31.6373V46.6738H30.3552V47.5514H31.8718ZM34.6159 45.0803L35.4086 46.508L36.2094 45.0803H36.7068L35.6351 46.9245V47.9518H35.1821V46.9164L34.1184 45.0803H34.6159ZM38.6778 47.972C38.4702 47.972 38.2828 47.9316 38.1156 47.8507C37.9484 47.7698 37.8042 47.6606 37.6829 47.5231C37.5615 47.3829 37.4672 47.2265 37.3998 47.054C37.335 46.8787 37.3027 46.6994 37.3027 46.516C37.3027 46.3246 37.3377 46.1426 37.4078 45.9701C37.4779 45.7948 37.575 45.6398 37.699 45.5049C37.8231 45.3674 37.9687 45.2596 38.1358 45.1814C38.3057 45.1005 38.489 45.0601 38.6859 45.0601C38.8908 45.0601 39.0768 45.1019 39.244 45.1854C39.4139 45.269 39.5581 45.3809 39.6768 45.5211C39.7981 45.6613 39.8911 45.8177 39.9558 45.9903C40.0232 46.1628 40.0569 46.3394 40.0569 46.5201C40.0569 46.7115 40.0219 46.8949 39.9518 47.0701C39.8844 47.2427 39.7887 47.3977 39.6646 47.5352C39.5406 47.6701 39.3936 47.7766 39.2238 47.8547C39.0566 47.9329 38.8746 47.972 38.6778 47.972ZM37.7637 46.516C37.7637 46.6509 37.7853 46.7816 37.8285 46.9084C37.8716 47.0351 37.9323 47.1483 38.0105 47.2481C38.0913 47.3452 38.1884 47.422 38.3017 47.4786C38.4149 47.5352 38.5416 47.5635 38.6818 47.5635C38.8274 47.5635 38.9569 47.5339 39.0701 47.4746C39.1833 47.4153 39.2777 47.3357 39.3532 47.236C39.4314 47.1335 39.4907 47.0203 39.5312 46.8962C39.5716 46.7695 39.5918 46.6428 39.5918 46.516C39.5918 46.3812 39.5703 46.2518 39.5271 46.1278C39.4867 46.0011 39.426 45.8892 39.3451 45.7921C39.2642 45.6923 39.1672 45.6141 39.0539 45.5575C38.9434 45.5009 38.8193 45.4726 38.6818 45.4726C38.5362 45.4726 38.4068 45.5022 38.2936 45.5616C38.1803 45.6209 38.0846 45.7004 38.0064 45.8002C37.9282 45.8999 37.8676 46.0118 37.8244 46.1359C37.784 46.2599 37.7637 46.3866 37.7637 46.516ZM42.3297 47.972C42.1005 47.972 41.9064 47.9329 41.7473 47.8547C41.5909 47.7766 41.4642 47.6701 41.3671 47.5352C41.2728 47.4004 41.2027 47.2467 41.1568 47.0742C41.1137 46.9016 41.0921 46.7223 41.0921 46.5363V45.0803H41.5451V46.5363C41.5451 46.6684 41.5586 46.7965 41.5855 46.9205C41.6125 47.0418 41.6556 47.151 41.7149 47.2481C41.7743 47.3452 41.8538 47.422 41.9536 47.4786C42.056 47.5352 42.1814 47.5635 42.3297 47.5635C42.4807 47.5635 42.6061 47.5352 42.7058 47.4786C42.8083 47.4193 42.8878 47.3411 42.9444 47.244C43.0038 47.1443 43.0469 47.0337 43.0739 46.9124C43.1008 46.7911 43.1143 46.6657 43.1143 46.5363V45.0803H43.5713V46.5363C43.5713 46.7331 43.5471 46.9191 43.4985 47.0944C43.4527 47.267 43.3799 47.4193 43.2801 47.5514C43.1831 47.6808 43.0563 47.7833 42.9 47.8588C42.7436 47.9343 42.5535 47.972 42.3297 47.972ZM44.7804 47.9518V45.0803H46.0301C46.1596 45.0803 46.2782 45.1072 46.386 45.1612C46.4939 45.2151 46.5869 45.2865 46.6651 45.3755C46.746 45.4645 46.808 45.5643 46.8512 45.6748C46.897 45.7854 46.9199 45.8986 46.9199 46.0145C46.9199 46.1413 46.897 46.2626 46.8512 46.3785C46.8053 46.4945 46.7393 46.5942 46.653 46.6778C46.5694 46.7614 46.471 46.8221 46.3577 46.8598L47.0332 47.9518H46.5236L45.9007 46.9528H45.2334V47.9518H44.7804ZM45.2334 46.5524H46.0261C46.1097 46.5524 46.1838 46.5282 46.2485 46.4796C46.3132 46.4311 46.3645 46.3664 46.4022 46.2855C46.44 46.2019 46.4588 46.1116 46.4588 46.0145C46.4588 45.9148 46.4373 45.8258 46.3941 45.7476C46.351 45.6667 46.2944 45.602 46.2243 45.5535C46.1569 45.5049 46.0827 45.4807 46.0018 45.4807H45.2334V46.5524ZM52.0248 45.0803V47.9518H51.5678V46.6859H50.1199V47.9518H49.6669V45.0803H50.1199V46.2815H51.5678V45.0803H52.0248ZM55.2488 47.5514V47.9518H53.2792V45.0803H55.2124V45.4807H53.7322V46.2976H55.0143V46.6738H53.7322V47.5514H55.2488ZM57.1519 45.0803H57.5806L58.6969 47.9518H58.2196L57.9163 47.1712H56.8081L56.5088 47.9518H56.0275L57.1519 45.0803ZM57.8273 46.8356L57.3662 45.5777L56.889 46.8356H57.8273ZM59.6586 47.9518V45.0803H60.1116V47.5514H61.6525V47.9518H59.6586ZM64.3038 45.4807H63.3493V47.9518H62.8923V45.4807H61.9338V45.0803H64.3038V45.4807ZM67.6534 45.0803V47.9518H67.1964V46.6859H65.7485V47.9518H65.2955V45.0803H65.7485V46.2815H67.1964V45.0803H67.6534Z" fill="#121212"/>
</svg>
