<svg width="50" height="50" viewBox="0 0 50 50" fill="none" xmlns="http://www.w3.org/2000/svg">
<path d="M22.0943 34.006C21.4656 33.9719 20.8739 33.6977 20.4413 33.24C19.9239 32.7422 19.4622 32.1897 19.0643 31.592C18.4428 30.702 17.9515 29.7279 17.6053 28.699C17.2132 27.5922 17.0068 26.4282 16.9943 25.254C16.9642 24.1019 17.2499 22.9635 17.8203 21.962C18.2379 21.2401 18.8335 20.6373 19.5503 20.211C20.2592 19.7866 21.0682 19.5581 21.8943 19.549C22.5172 19.5859 23.1292 19.7282 23.7043 19.97C24.1629 20.1718 24.6455 20.3136 25.1403 20.392C25.6864 20.2776 26.2199 20.1102 26.7333 19.892C27.341 19.6547 27.9844 19.5219 28.6363 19.499C28.7233 19.499 28.8093 19.499 28.8923 19.509C30.3219 19.5505 31.6515 20.2522 32.4923 21.409C31.1553 22.1239 30.3344 23.5303 30.3693 25.046C30.3561 26.1956 30.8355 27.2959 31.6863 28.069C32.0693 28.4339 32.5151 28.7262 33.0023 28.932C32.9023 29.232 32.7873 29.522 32.6653 29.814C32.388 30.4593 32.0459 31.0748 31.6443 31.651C31.2652 32.2282 30.8239 32.7621 30.3283 33.243C29.876 33.6919 29.273 33.9567 28.6363 33.986C28.0967 33.9621 27.5666 33.8355 27.0743 33.613C26.5436 33.3818 25.9731 33.2551 25.3943 33.24C24.7992 33.2517 24.2119 33.3777 23.6643 33.611C23.1914 33.8244 22.6861 33.9572 22.1693 34.004L22.0943 34.006ZM25.2443 19.499C25.1693 19.499 25.0943 19.499 25.0193 19.49C25.0036 19.371 24.9952 19.2511 24.9943 19.131C25.0271 18.1322 25.4174 17.1783 26.0943 16.443C26.4727 16.0206 26.9312 15.6776 27.4433 15.434C27.9212 15.188 28.4435 15.0401 28.9793 14.999C28.9943 15.13 28.9943 15.258 28.9943 15.38C28.9802 16.3632 28.6108 17.308 27.9543 18.04C27.3109 18.9028 26.3189 19.4369 25.2443 19.499Z" fill="#121212"/>
<rect x="0.5" y="0.5" width="49" height="49" rx="24.5" stroke="#121212"/>
</svg>
